<svg version="1.2" xmlns="http://www.w3.org/2000/svg" viewBox="0 0 5000 5000" width="500" height="500"><style>.a{fill:#000000}</style><path fill-rule="evenodd" class="a" d="m4043.6 3034.6c0 180.4-58 330-171.8 443.5-487.2 544.1-1904.5 326.4-2915.4 253.4v-2567.9h477.1v2236.7c94.5 27.3 206.3 51.7 328.4 71.8 721.3 118.9 1801.1 85.9 1801.1-479.5v-5.7c0-55.7-9.2-104.6-27-147.1-65.2-153.7-245.3-223.5-526.8-223.5h-770.5v762.4c-151.6-7.4-305.6-23.8-453.6-48.2-7.7-1.2-15.5-2.6-23.2-4.1v-2162.8h1203.3c616.2 0 946.3 260.6 946.3 667.6 0 264.3-131.9 458.5-330.1 565.1 233 74.4 402.8 241 449.3 492.6q12.9 68.5 12.9 145.7zm-612.7-1141c0-238.5-187-356-517.1-356h-675.1v708.1h675.1c330.1 0 517.1-117.2 517.1-352.1z"/></svg>